<svg id="visual" viewBox="0 0 900 600" width="900" height="600" xmlns="http://www.w3.org/2000/svg" xmlns:xlink="http://www.w3.org/1999/xlink" version="1.1"><g stroke-width="1" stroke-linejoin="bevel"><path d="M402 335L363 423L495 365Z" fill="#008674" stroke="#008674"></path><path d="M308 282L316 432L363 423Z" fill="#006b6d" stroke="#006b6d"></path><path d="M316 432L374 510L363 423Z" fill="#00101c" stroke="#00101c"></path><path d="M363 423L488 513L495 365Z" fill="#00101c" stroke="#00101c"></path><path d="M374 510L488 513L363 423Z" fill="#009473" stroke="#009473"></path><path d="M593 367L527 300L495 365Z" fill="#00101c" stroke="#00101c"></path><path d="M495 365L527 300L402 335Z" fill="#00101c" stroke="#00101c"></path><path d="M583 491L593 367L495 365Z" fill="#053543" stroke="#053543"></path><path d="M316 432L287 490L374 510Z" fill="#007872" stroke="#007872"></path><path d="M386 200L308 282L402 335Z" fill="#007872" stroke="#007872"></path><path d="M402 335L308 282L363 423Z" fill="#006b6d" stroke="#006b6d"></path><path d="M316 432L235 378L287 490Z" fill="#006b6d" stroke="#006b6d"></path><path d="M593 367L583 312L527 300Z" fill="#062836" stroke="#062836"></path><path d="M488 513L583 491L495 365Z" fill="#061c29" stroke="#061c29"></path><path d="M308 282L235 378L316 432Z" fill="#005d65" stroke="#005d65"></path><path d="M266 600L389 600L374 510Z" fill="#009473" stroke="#009473"></path><path d="M374 510L389 600L488 513Z" fill="#008674" stroke="#008674"></path><path d="M488 513L493 600L583 491Z" fill="#062836" stroke="#062836"></path><path d="M592 239L521 216L527 300Z" fill="#006b6d" stroke="#006b6d"></path><path d="M527 300L521 216L402 335Z" fill="#006b6d" stroke="#006b6d"></path><path d="M521 216L386 200L402 335Z" fill="#00101c" stroke="#00101c"></path><path d="M389 600L493 600L488 513Z" fill="#008674" stroke="#008674"></path><path d="M684 330L592 239L583 312Z" fill="#008674" stroke="#008674"></path><path d="M583 312L592 239L527 300Z" fill="#006b6d" stroke="#006b6d"></path><path d="M421 104L304 186L386 200Z" fill="#008674" stroke="#008674"></path><path d="M386 200L304 186L308 282Z" fill="#005d65" stroke="#005d65"></path><path d="M308 282L177 321L235 378Z" fill="#009473" stroke="#009473"></path><path d="M287 490L266 600L374 510Z" fill="#062836" stroke="#062836"></path><path d="M193 522L266 600L287 490Z" fill="#00101c" stroke="#00101c"></path><path d="M583 491L686 462L593 367Z" fill="#061c29" stroke="#061c29"></path><path d="M593 367L684 330L583 312Z" fill="#005d65" stroke="#005d65"></path><path d="M603 600L686 462L583 491Z" fill="#061c29" stroke="#061c29"></path><path d="M706 382L684 330L593 367Z" fill="#005d65" stroke="#005d65"></path><path d="M493 600L603 600L583 491Z" fill="#00101c" stroke="#00101c"></path><path d="M236 177L177 321L308 282Z" fill="#00101c" stroke="#00101c"></path><path d="M235 378L193 522L287 490Z" fill="#004f5b" stroke="#004f5b"></path><path d="M103 395L193 522L235 378Z" fill="#053543" stroke="#053543"></path><path d="M686 462L706 382L593 367Z" fill="#053543" stroke="#053543"></path><path d="M193 522L224 600L266 600Z" fill="#061c29" stroke="#061c29"></path><path d="M496 95L421 104L521 216Z" fill="#007872" stroke="#007872"></path><path d="M521 216L421 104L386 200Z" fill="#053543" stroke="#053543"></path><path d="M295 88L236 177L304 186Z" fill="#005d65" stroke="#005d65"></path><path d="M304 186L236 177L308 282Z" fill="#004f5b" stroke="#004f5b"></path><path d="M668 186L595 138L592 239Z" fill="#008674" stroke="#008674"></path><path d="M592 239L595 138L521 216Z" fill="#02424f" stroke="#02424f"></path><path d="M595 138L496 95L521 216Z" fill="#02424f" stroke="#02424f"></path><path d="M684 330L668 186L592 239Z" fill="#006b6d" stroke="#006b6d"></path><path d="M695 135L668 186L825 239Z" fill="#007872" stroke="#007872"></path><path d="M102 322L103 395L177 321Z" fill="#00101c" stroke="#00101c"></path><path d="M177 321L103 395L235 378Z" fill="#006b6d" stroke="#006b6d"></path><path d="M193 522L86 600L224 600Z" fill="#00101c" stroke="#00101c"></path><path d="M102 166L102 322L177 321Z" fill="#008674" stroke="#008674"></path><path d="M421 104L295 88L304 186Z" fill="#00101c" stroke="#00101c"></path><path d="M236 177L102 166L177 321Z" fill="#004f5b" stroke="#004f5b"></path><path d="M399 0L295 88L421 104Z" fill="#007872" stroke="#007872"></path><path d="M0 373L90 471L103 395Z" fill="#009473" stroke="#009473"></path><path d="M103 395L90 471L193 522Z" fill="#006b6d" stroke="#006b6d"></path><path d="M603 600L720 600L686 462Z" fill="#009473" stroke="#009473"></path><path d="M686 462L804 483L706 382Z" fill="#02424f" stroke="#02424f"></path><path d="M825 239L668 186L684 330Z" fill="#005d65" stroke="#005d65"></path><path d="M668 186L695 135L595 138Z" fill="#005d65" stroke="#005d65"></path><path d="M560 0L498 0L496 95Z" fill="#053543" stroke="#053543"></path><path d="M825 326L684 330L706 382Z" fill="#008674" stroke="#008674"></path><path d="M720 600L804 483L686 462Z" fill="#008674" stroke="#008674"></path><path d="M295 88L187 105L236 177Z" fill="#007872" stroke="#007872"></path><path d="M804 483L819 397L706 382Z" fill="#053543" stroke="#053543"></path><path d="M90 471L86 600L193 522Z" fill="#009473" stroke="#009473"></path><path d="M819 397L825 326L706 382Z" fill="#006b6d" stroke="#006b6d"></path><path d="M498 0L421 104L496 95Z" fill="#004f5b" stroke="#004f5b"></path><path d="M498 0L399 0L421 104Z" fill="#006b6d" stroke="#006b6d"></path><path d="M295 88L187 0L187 105Z" fill="#02424f" stroke="#02424f"></path><path d="M139 111L102 166L236 177Z" fill="#00101c" stroke="#00101c"></path><path d="M102 322L0 373L103 395Z" fill="#005d65" stroke="#005d65"></path><path d="M720 600L785 600L804 483Z" fill="#006b6d" stroke="#006b6d"></path><path d="M804 483L900 393L819 397Z" fill="#062836" stroke="#062836"></path><path d="M560 0L496 95L595 138Z" fill="#062836" stroke="#062836"></path><path d="M187 0L139 111L187 105Z" fill="#005d65" stroke="#005d65"></path><path d="M187 105L139 111L236 177Z" fill="#062836" stroke="#062836"></path><path d="M711 0L560 0L595 138Z" fill="#00101c" stroke="#00101c"></path><path d="M825 326L825 239L684 330Z" fill="#007872" stroke="#007872"></path><path d="M695 135L711 0L595 138Z" fill="#062836" stroke="#062836"></path><path d="M399 0L290 0L295 88Z" fill="#061c29" stroke="#061c29"></path><path d="M0 334L0 373L102 322Z" fill="#053543" stroke="#053543"></path><path d="M90 471L0 495L86 600Z" fill="#062836" stroke="#062836"></path><path d="M0 161L0 334L102 322Z" fill="#004f5b" stroke="#004f5b"></path><path d="M0 373L0 495L90 471Z" fill="#062836" stroke="#062836"></path><path d="M819 397L900 393L825 326Z" fill="#053543" stroke="#053543"></path><path d="M825 326L900 295L825 239Z" fill="#053543" stroke="#053543"></path><path d="M900 509L900 393L804 483Z" fill="#007872" stroke="#007872"></path><path d="M290 0L187 0L295 88Z" fill="#061c29" stroke="#061c29"></path><path d="M0 114L0 161L102 166Z" fill="#02424f" stroke="#02424f"></path><path d="M102 166L0 161L102 322Z" fill="#007872" stroke="#007872"></path><path d="M0 495L0 600L86 600Z" fill="#062836" stroke="#062836"></path><path d="M900 393L900 295L825 326Z" fill="#053543" stroke="#053543"></path><path d="M806 83L711 0L695 135Z" fill="#062836" stroke="#062836"></path><path d="M785 600L900 509L804 483Z" fill="#008674" stroke="#008674"></path><path d="M806 83L695 135L825 239Z" fill="#062836" stroke="#062836"></path><path d="M900 130L806 83L825 239Z" fill="#00101c" stroke="#00101c"></path><path d="M0 114L102 166L139 111Z" fill="#007872" stroke="#007872"></path><path d="M785 600L900 600L900 509Z" fill="#009473" stroke="#009473"></path><path d="M900 295L900 199L825 239Z" fill="#00101c" stroke="#00101c"></path><path d="M80 0L0 114L139 111Z" fill="#008674" stroke="#008674"></path><path d="M187 0L80 0L139 111Z" fill="#00101c" stroke="#00101c"></path><path d="M900 199L900 130L825 239Z" fill="#053543" stroke="#053543"></path><path d="M806 83L804 0L711 0Z" fill="#061c29" stroke="#061c29"></path><path d="M900 0L804 0L806 83Z" fill="#053543" stroke="#053543"></path><path d="M80 0L0 0L0 114Z" fill="#009473" stroke="#009473"></path><path d="M900 130L900 0L806 83Z" fill="#008674" stroke="#008674"></path></g></svg>